HIERARCHY
ROOT Hips
{
	OFFSET -0.001795 -0.223333 0.028219
	CHANNELS 6 Xposition Yposition Zposition Zrotation Yrotation Xrotation 
	JOINT LeftUpLeg
	{
		OFFSET 0.069520 -0.091406 -0.006815
		CHANNELS 3 Zrotation Yrotation Xrotation
		JOINT LeftLeg
		{
			OFFSET 0.034277 -0.375199 -0.004496
			CHANNELS 3 Zrotation Yrotation Xrotation
			JOINT LeftFoot
			{
				OFFSET -0.013596 -0.397961 -0.043693
				CHANNELS 3 Zrotation Yrotation Xrotation
				JOINT LeftToe
				{
					OFFSET 0.026358 -0.055791 0.119288
					CHANNELS 3 Zrotation Yrotation Xrotation
					End Site
					{
						OFFSET 0.000000 0.000000 0.000000
					}
				}
			}
		}
	}
	JOINT RightUpLeg
	{
		OFFSET -0.067670 -0.090522 -0.004320
		CHANNELS 3 Zrotation Yrotation Xrotation
		JOINT RightLeg
		{
			OFFSET -0.038290 -0.382569 -0.008850
			CHANNELS 3 Zrotation Yrotation Xrotation
			JOINT RightFoot
			{
				OFFSET 0.015774 -0.398415 -0.042312
				CHANNELS 3 Zrotation Yrotation Xrotation
				JOINT RightToe
				{
					OFFSET -0.025372 -0.048144 0.123348
					CHANNELS 3 Zrotation Yrotation Xrotation
					End Site
					{
						OFFSET 0.000000 0.000000 0.000000
					}
				}
			}
		}
	}
	JOINT Spine
	{
		OFFSET -0.002533 0.108963 -0.026696
		CHANNELS 3 Zrotation Yrotation Xrotation
		JOINT Spine1
		{
			OFFSET 0.005487 0.135180 0.001092
			CHANNELS 3 Zrotation Yrotation Xrotation
			JOINT Spine2
			{
				OFFSET 0.001457 0.052922 0.025425
				CHANNELS 3 Zrotation Yrotation Xrotation
				JOINT Neck
				{
					OFFSET -0.002778 0.213870 -0.042857
					CHANNELS 3 Zrotation Yrotation Xrotation
					JOINT Head
					{
						OFFSET 0.005152 0.064970 0.051349
						CHANNELS 3 Zrotation Yrotation Xrotation
						End Site
						{
							OFFSET 0.000000 0.000000 0.000000
						}
					}
				}
				JOINT LeftShoulder
				{
					OFFSET 0.078845 0.121749 -0.034090
					CHANNELS 3 Zrotation Yrotation Xrotation
					JOINT LeftArm
					{
						OFFSET 0.090977 0.030469 -0.008868
						CHANNELS 3 Zrotation Yrotation Xrotation
						JOINT LeftForeArm
						{
							OFFSET 0.259612 -0.012772 -0.027456
							CHANNELS 3 Zrotation Yrotation Xrotation
							JOINT LeftHand
							{
								OFFSET 0.249234 0.008986 -0.001171
								CHANNELS 3 Zrotation Yrotation Xrotation
								End Site
								{
									OFFSET 0.000000 0.000000 0.000000
								}
							}
						}
					}
				}
				JOINT RightShoulder
				{
					OFFSET -0.081759 0.118833 -0.038615
					CHANNELS 3 Zrotation Yrotation Xrotation
					JOINT RightArm
					{
						OFFSET -0.096012 0.032551 -0.009143
						CHANNELS 3 Zrotation Yrotation Xrotation
						JOINT RightForeArm
						{
							OFFSET -0.253742 -0.013329 -0.021401
							CHANNELS 3 Zrotation Yrotation Xrotation
							JOINT RightHand
							{
								OFFSET -0.255298 0.007772 -0.005559
								CHANNELS 3 Zrotation Yrotation Xrotation
								End Site
								{
									OFFSET 0.000000 0.000000 0.000000
								}
							}
						}
					}
				}
			}
		}
	}
}
MOTION
Frames: 18
Frame Time: 0.050000
0.000000 0.933387 0.000000 -2.851701 5.383514 -3.080823 5.702547 0.063438 5.166357 -5.438897 0.500439 -1.807971 8.025581 17.040780 6.886417 0.000000 0.000000 0.000000 1.482126 0.668289 -5.968110 7.606611 -1.112292 5.216091 -9.079749 -21.434655 9.982699 0.000000 0.000000 0.000000 -2.849694 -0.421262 16.482601 4.877203 -0.696921 -20.978745 -1.189997 -1.867705 26.003372 2.037974 1.094731 -32.617721 0.000000 0.000000 0.000000 -34.105469 -10.118817 4.113376 -44.343770 -11.218624 -3.102591 -5.304395 -20.520197 1.817413 0.000000 0.000000 0.000000 26.564235 14.872852 8.308584 50.803207 11.425869 -2.624947 2.702743 23.063158 1.441264 0.000000 0.000000 0.000000 
-0.002246 0.931762 0.002807 -3.219446 5.134953 -2.747610 6.202250 0.041620 5.626179 -5.369337 0.481270 -2.953257 8.200675 17.283275 6.553040 0.000000 0.000000 0.000000 1.937617 0.769389 -6.683871 7.834765 -1.177175 6.068198 -9.067858 -21.472860 9.351091 0.000000 0.000000 0.000000 -2.236661 -0.503380 16.504712 4.672730 -0.714564 -19.855215 -0.496863 -2.003825 24.212519 1.755271 1.329475 -34.253116 0.000000 0.000000 0.000000 -33.534086 -8.399862 2.948386 -45.330996 -10.683663 -3.237556 -7.482791 -21.032904 2.275473 0.000000 0.000000 0.000000 25.235409 14.861180 7.950227 51.629968 10.868265 -2.627771 3.123866 24.924377 1.656587 0.000000 0.000000 0.000000 
-0.004911 0.930844 0.006250 -3.419705 6.233101 -2.626535 6.662966 -0.021393 5.662166 -5.276709 0.455362 -3.228832 7.761324 16.475487 6.035046 0.000000 0.000000 0.000000 2.942474 0.920626 -7.496761 6.741790 -1.059594 7.636915 -9.760796 -22.769509 9.107700 0.000000 0.000000 0.000000 -1.587885 -0.654636 17.128971 4.588265 -0.611165 -20.694602 -0.178711 -1.934641 24.227110 0.490453 2.057312 -34.639886 0.000000 0.000000 0.000000 -33.751702 -8.546364 2.706506 -45.899418 -9.830171 -3.478404 -6.022067 -19.940511 1.885598 0.000000 0.000000 0.000000 24.569660 14.561555 7.949485 52.042794 9.931638 -3.086754 2.834590 24.834079 1.603885 0.000000 0.000000 0.000000 
-0.008392 0.929818 0.011048 -3.798299 6.049006 -3.389426 7.210799 -0.034937 6.653874 -5.022583 0.445989 -2.970166 7.900322 16.636135 5.579348 0.000000 0.000000 0.000000 3.516830 0.881411 -6.882347 6.973326 -1.134657 8.492031 -9.715713 -22.773594 8.486856 0.000000 0.000000 0.000000 -1.335547 -0.746025 18.133322 5.223503 -0.777848 -21.072516 0.026100 -1.150333 24.042092 0.298866 2.342169 -36.377949 0.000000 0.000000 0.000000 -33.991489 -8.270993 2.156192 -45.809339 -8.616282 -3.785690 -8.175844 -20.413596 2.296946 0.000000 0.000000 0.000000 24.537207 15.146686 8.506870 50.996953 9.268015 -3.365992 3.953280 25.705442 1.902146 0.000000 0.000000 0.000000 
-0.012770 0.928494 0.017059 -3.873248 6.678041 -3.772147 7.587886 -0.077072 6.970391 -4.810066 0.431870 -2.324357 7.713921 16.208974 4.924772 0.000000 0.000000 0.000000 4.140077 0.883063 -6.604445 6.625873 -1.116412 9.385666 -10.086199 -23.579990 7.826581 0.000000 0.000000 0.000000 -0.971268 -0.828996 18.244472 5.476618 -0.886805 -20.353684 0.027220 -0.943764 23.228490 -0.092802 2.590138 -35.886164 0.000000 0.000000 0.000000 -33.719536 -8.221737 1.811290 -45.639874 -7.308239 -4.088307 -9.314836 -21.587784 2.630875 0.000000 0.000000 0.000000 24.042083 14.633609 8.275245 50.450432 8.619045 -3.560643 5.290051 26.009263 2.212565 0.000000 0.000000 0.000000 
-0.017981 0.927162 0.024242 -3.966278 7.199477 -3.810559 8.295039 -0.157100 7.011074 -5.051698 0.449196 -1.725252 7.558758 15.846260 4.414000 0.000000 0.000000 0.000000 4.585975 0.808592 -5.871002 6.757118 -1.143416 8.892961 -10.286688 -24.120219 7.053614 0.000000 0.000000 0.000000 -0.548793 -0.898073 18.039079 5.244981 -0.761801 -21.064533 0.619681 -0.707211 23.896424 -1.332457 3.256815 -36.661707 0.000000 0.000000 0.000000 -33.812629 -8.197550 1.553541 -45.707784 -6.742673 -4.278684 -10.435811 -22.403637 2.949328 0.000000 0.000000 0.000000 23.978659 14.528758 8.420611 49.367942 7.582661 -4.045854 6.348424 26.321198 2.478944 0.000000 0.000000 0.000000 
-0.023340 0.926444 0.032559 -3.745279 7.658314 -3.778111 8.699522 -0.205976 6.377611 -5.315788 0.485632 0.152435 7.431786 15.564714 4.083960 0.000000 0.000000 0.000000 4.824364 0.779151 -5.571387 6.689461 -1.156750 9.244330 -10.495772 -24.680441 6.358328 0.000000 0.000000 0.000000 -0.223873 -0.953675 17.960013 5.183788 -0.726787 -21.174518 0.565385 -0.727208 23.845835 -1.435428 3.330494 -36.390436 0.000000 0.000000 0.000000 -33.775947 -7.738014 1.108832 -45.368570 -6.336127 -4.362523 -11.346596 -23.206241 3.240456 0.000000 0.000000 0.000000 23.284978 14.224172 8.224531 49.061932 7.053120 -4.240590 6.501947 26.696266 2.558392 0.000000 0.000000 0.000000 
-0.028488 0.926195 0.042602 -3.537121 7.858386 -4.161463 9.047018 -0.228276 5.501713 -5.449318 0.524970 3.552448 7.412096 15.515190 3.964263 0.000000 0.000000 0.000000 4.910081 0.601344 -4.246439 6.927751 -1.197381 8.799137 -10.475532 -24.818502 5.630769 0.000000 0.000000 0.000000 0.212574 -1.032133 18.076089 4.717752 -0.572538 -21.525051 0.758000 -0.943601 23.947678 -2.627090 3.856058 -36.622412 0.000000 0.000000 0.000000 -34.009198 -7.322139 0.849815 -44.961051 -6.639839 -4.247362 -11.822021 -24.194595 3.493560 0.000000 0.000000 0.000000 22.514536 13.862160 7.876434 48.768428 6.358012 -4.495238 7.456420 26.442896 2.734235 0.000000 0.000000 0.000000 
-0.033027 0.926852 0.054871 -3.104041 7.830449 -4.426313 9.193982 -0.223888 4.284801 -5.735182 0.578696 7.662872 7.372689 15.612123 4.743253 0.000000 0.000000 0.000000 4.893173 0.382414 -2.705935 6.855507 -1.152408 8.099109 -10.327462 -24.673468 5.009596 0.000000 0.000000 0.000000 0.400601 -1.021649 17.635120 4.567956 -0.542537 -21.330579 0.412836 -0.824141 23.875077 -2.851526 3.975390 -36.306079 0.000000 0.000000 0.000000 -34.228279 -7.474382 0.890205 -44.300141 -7.268248 -3.953313 -12.176870 -24.660500 3.633392 0.000000 0.000000 0.000000 22.880414 13.562741 7.778330 48.106424 5.768132 -4.699267 7.613136 26.467406 2.767334 0.000000 0.000000 0.000000 
-0.037153 0.927514 0.068777 -2.572492 8.348062 -4.897513 9.891572 -0.254220 1.861666 -7.029736 0.801175 15.249930 6.439952 13.945647 4.267419 0.000000 0.000000 0.000000 4.576100 0.024519 -0.206218 7.098520 -1.144543 6.278507 -10.278597 -24.757014 4.509282 0.000000 0.000000 0.000000 0.572476 -1.005294 16.991421 4.338830 -0.470098 -21.288685 0.183302 -1.000885 24.359156 -3.635822 4.357439 -35.896592 0.000000 0.000000 0.000000 -34.280476 -7.079065 0.553626 -43.633589 -8.228960 -3.599691 -12.725621 -25.405179 3.869720 0.000000 0.000000 0.000000 22.501984 13.408697 7.698453 47.564703 5.666811 -4.755511 8.292008 26.312982 2.894552 0.000000 0.000000 0.000000 
-0.040769 0.928272 0.083220 -2.509167 6.981586 -5.085380 11.155542 -0.233340 -0.431993 -8.987895 1.417206 22.812733 6.112880 13.493566 4.657758 0.000000 0.000000 0.000000 4.853965 -0.232640 1.475643 6.970891 -1.054126 5.438916 -9.559879 -23.308595 3.887817 0.000000 0.000000 0.000000 0.758669 -0.924575 16.013232 4.017390 -0.423519 -21.094423 0.983474 -0.100138 24.298934 -4.841581 4.936470 -35.233833 0.000000 0.000000 0.000000 -35.362369 -6.449645 -0.031735 -42.219194 -8.017396 -3.529619 -13.878618 -26.956015 4.388490 0.000000 0.000000 0.000000 21.492070 13.234656 7.473872 47.180346 4.738099 -5.055392 9.702787 26.272762 3.199982 0.000000 0.000000 0.000000 
-0.043442 0.928419 0.097526 -1.914759 6.190043 -5.240267 11.935590 -0.168509 -3.566732 -10.947383 2.300088 30.798707 5.460941 12.942938 7.360799 0.000000 0.000000 0.000000 4.168900 -0.492895 3.347643 7.377690 -1.066148 4.298559 -9.027061 -22.240850 3.131507 0.000000 0.000000 0.000000 0.312073 -0.780624 15.056530 4.703261 -0.653539 -20.849472 0.745652 0.488472 24.284434 -5.719872 5.359748 -35.280124 0.000000 0.000000 0.000000 -36.357981 -5.618039 -0.798989 -40.854092 -7.847477 -3.431203 -14.678136 -28.683272 4.881804 0.000000 0.000000 0.000000 21.341397 13.359017 7.544656 46.248091 4.770987 -4.969526 11.119811 27.191559 3.662503 0.000000 0.000000 0.000000 
-0.045001 0.928353 0.111467 -1.374495 4.513939 -6.019721 12.567395 -0.041431 -5.534393 -12.949943 3.536753 35.349447 7.273209 16.551210 12.805808 0.000000 0.000000 0.000000 4.275037 -0.873929 5.976261 6.128713 -0.797114 3.035122 -8.282923 -20.609179 2.162478 0.000000 0.000000 0.000000 0.072713 -0.730135 15.389229 4.334187 -0.554254 -21.451505 1.433012 2.091852 24.844523 -5.729555 5.474217 -35.336996 0.000000 0.000000 0.000000 -36.314044 -5.125630 -1.390223 -40.191117 -7.376285 -3.507892 -15.327300 -30.187871 5.308334 0.000000 0.000000 0.000000 21.233099 13.057550 7.500058 45.671043 4.639582 -5.058426 11.878795 28.261919 4.034908 0.000000 0.000000 0.000000 
-0.045369 0.928744 0.124755 -0.862642 3.503979 -6.185149 12.135606 0.022120 -8.478030 -12.996564 3.798694 36.236303 10.669637 21.476934 19.892790 0.000000 0.000000 0.000000 3.856040 -1.029475 7.283410 5.750285 -0.717886 2.747009 -7.849788 -19.588664 1.680183 0.000000 0.000000 0.000000 -0.040342 -0.678212 15.118149 4.377307 -0.604210 -21.265826 1.205776 2.958502 24.926478 -5.859419 5.603961 -34.548304 0.000000 0.000000 0.000000 -36.188916 -4.994242 -1.594274 -39.960230 -7.620193 -3.379542 -14.436754 -29.821945 4.981477 0.000000 0.000000 0.000000 21.150938 12.989190 7.516901 45.915798 5.663459 -4.741429 11.731951 28.492590 4.065408 0.000000 0.000000 0.000000 
-0.044510 0.928416 0.138139 -0.601314 2.391724 -6.309669 12.156976 0.096487 -10.799562 -13.248129 3.882996 33.017085 14.361841 25.965124 20.201302 0.000000 0.000000 0.000000 3.168943 -1.130723 8.463734 6.108435 -0.746536 2.578639 -7.351443 -18.370549 1.148481 0.000000 0.000000 0.000000 -0.218341 -0.650020 15.509535 4.415991 -0.629909 -21.420247 1.594736 3.829697 24.761114 -6.583194 5.967601 -34.774670 0.000000 0.000000 0.000000 -36.089890 -4.879849 -1.752193 -39.383154 -6.906659 -3.513336 -14.797593 -30.077563 5.104733 0.000000 0.000000 0.000000 21.069621 12.855791 7.454081 45.166325 5.710058 -4.661902 12.995654 29.505342 4.559375 0.000000 0.000000 0.000000 
-0.042899 0.927072 0.152010 -0.550280 1.072297 -6.756465 12.298250 0.202908 -12.711163 -12.875298 3.587896 28.510775 14.133401 26.382524 11.705177 0.000000 0.000000 0.000000 2.832391 -1.258946 9.812229 6.048745 -0.719195 2.784191 -6.873039 -17.123598 0.319456 0.000000 0.000000 0.000000 -0.368892 -0.626886 16.057761 4.383321 -0.687337 -20.945098 1.950415 4.733444 24.549804 -6.830490 6.116380 -34.518783 0.000000 0.000000 0.000000 -36.371704 -4.674002 -2.000863 -38.794977 -6.006184 -3.683542 -14.595334 -30.244789 5.063372 0.000000 0.000000 0.000000 21.237478 12.856775 7.480100 44.952048 6.383017 -4.410589 13.109851 29.859964 4.664940 0.000000 0.000000 0.000000 
-0.040363 0.925708 0.166831 -0.826852 0.285332 -6.838500 12.519996 0.294250 -14.423502 -11.087652 2.689932 23.326120 10.706366 21.400474 7.386785 0.000000 0.000000 0.000000 2.456660 -1.303722 10.548132 6.660986 -0.801674 3.439274 -6.556725 -16.275913 -0.139685 0.000000 0.000000 0.000000 -0.443958 -0.620390 16.565803 4.348754 -0.687816 -21.046661 2.527420 4.893497 24.536161 -7.426226 6.326447 -35.157637 0.000000 0.000000 0.000000 -36.487273 -3.905132 -2.423452 -38.638582 -5.163600 -3.959353 -14.760545 -30.163051 5.111330 0.000000 0.000000 0.000000 20.862126 12.724201 7.252464 44.547931 6.966103 -4.148085 13.602133 30.377174 4.879253 0.000000 0.000000 0.000000 
-0.036934 0.923452 0.182827 -0.999010 -0.659514 -6.792494 12.949695 0.419724 -15.351496 -8.171242 1.681515 19.687604 5.710638 12.501676 3.870871 0.000000 0.000000 0.000000 2.269422 -1.347259 11.204213 6.557351 -0.781313 4.142766 -6.303060 -15.488658 -0.957935 0.000000 0.000000 0.000000 -0.667480 -0.574597 16.699325 4.700765 -0.833894 -20.689978 2.452898 5.764277 24.142003 -7.949621 6.622962 -34.777462 0.000000 0.000000 0.000000 -36.610695 -3.505727 -2.919690 -38.170898 -4.340037 -4.064407 -14.975984 -30.141555 5.140326 0.000000 0.000000 0.000000 20.866552 12.792863 7.362592 44.649692 6.975532 -4.137846 13.547191 31.016255 5.008967 0.000000 0.000000 0.000000 
